<?xml version="1.0" encoding="iso-8859-1"?>
<!-- Generator: Adobe Illustrator 18.1.1, SVG Export Plug-In . SVG Version: 6.00 Build 0)  -->
<svg version="1.1" id="Capa_1" xmlns="http://www.w3.org/2000/svg" xmlns:xlink="http://www.w3.org/1999/xlink" x="0px" y="0px"
	 viewBox="0 0 56.75 56.75" style="enable-background:new 0 0 56.75 56.75;" xml:space="preserve">
<g>
	<path style="fill:#010002;" d="M55.745,49.333h-3.587V5.664c0-0.553-0.447-1-1-1s-1,0.447-1,1v8.741H30.73l0.597-2.903
		c0.055-0.271-0.119-0.535-0.39-0.591c-0.271-0.053-0.534,0.118-0.592,0.39l-0.638,3.104h-2.632l-0.379-3.092
		c-0.034-0.275-0.286-0.474-0.557-0.436c-0.274,0.033-0.47,0.283-0.436,0.557l0.364,2.971H6.587V5.664c0-0.553-0.447-1-1-1
		c-0.553,0-1,0.447-1,1v44.067c0,0.125,0.029,0.242,0.071,0.354H1c-0.553,0-1,0.447-1,1s0.447,1,1,1h9.175c0.553,0,1-0.447,1-1
		s-0.447-1-1-1H6.516c0.042-0.109,0.071-0.229,0.071-0.354V16.405H23.36l-0.001,10.348l-2.741-2.885
		c-0.4-0.42-1.111-0.406-1.494,0.03l-2.364,2.697c-0.378,0.431-0.361,1.09,0.037,1.501l5.685,5.877
		c0.31,0.32,0.86,0.555,1.309,0.555h1.938c0.548,0,1.02-0.426,1.099-0.988c0.239-1.698,1.33-3.771,2.262-3.771
		c0.932,0,2.022,2.073,2.264,3.773c0.08,0.562,0.553,0.986,1.099,0.986h1.26c0.448,0,1-0.233,1.31-0.555l5.685-5.877
		c0.397-0.411,0.415-1.07,0.038-1.5l-2.365-2.7c-0.384-0.434-1.096-0.448-1.492-0.028l-2.744,2.885V16.405h16.021v32.928h-3.591
		c-0.554,0-1,0.447-1,1s0.446,1,1,1h9.175c0.553,0,1-0.447,1-1C56.745,49.78,56.298,49.333,55.745,49.333z M34.387,27.945
		l3.237-3.389l2.364,2.699c0.031,0.036,0.029,0.109-0.006,0.146l-5.684,5.877c-0.119,0.123-0.418,0.25-0.591,0.25h-1.26
		c-0.048,0-0.099-0.062-0.108-0.129c-0.229-1.614-1.417-4.632-3.253-4.632c-1.837,0-3.024,3.018-3.252,4.634
		c-0.01,0.066-0.061,0.127-0.108,0.127h-1.938c-0.173,0-0.47-0.127-0.59-0.25l-5.684-5.877c-0.034-0.035-0.036-0.109-0.004-0.146
		l2.382-2.697l3.218,3.387c0.226,0.238,0.445,0.288,0.59,0.288c0.317,0,0.659-0.245,0.659-0.785l0.058-11.042h8.723v11.042
		c-0.002,0.18,0.035,0.335,0.109,0.463c0.116,0.201,0.322,0.321,0.549,0.321C33.943,28.232,34.163,28.182,34.387,27.945z"/>
</g>
<g>
</g>
<g>
</g>
<g>
</g>
<g>
</g>
<g>
</g>
<g>
</g>
<g>
</g>
<g>
</g>
<g>
</g>
<g>
</g>
<g>
</g>
<g>
</g>
<g>
</g>
<g>
</g>
<g>
</g>
</svg>
